<?xml version="1.0" encoding="UTF-8"?>
<svg width="285px" height="300px" viewBox="0 0 285 300" version="1.1" xmlns="http://www.w3.org/2000/svg" xmlns:xlink="http://www.w3.org/1999/xlink">
    <!-- Generator: Sketch 44.1 (41455) - http://www.bohemiancoding.com/sketch -->
    <title>logo</title>
    <desc>Created with Sketch.</desc>
    <defs></defs>
    <g id="Page-1" stroke="none" stroke-width="1" fill="none" fill-rule="evenodd">
        <g id="Artboard" transform="translate(-102.000000, -88.000000)" fill="#511E78">
            <g id="logo" transform="translate(102.000000, 88.000000)">
                <path d="M284.393141,83.3034296 L262.02745,94.4862751 C241.581243,53.3047638 199.096087,25 150,25 C80.9644063,25 25,80.9644063 25,150 C25,219.035594 80.9644063,275 150,275 C198.777647,275 241.029842,247.061218 261.626826,206.313413 L283.992517,217.496259 C259.290988,266.436965 208.565027,300 150,300 C67.1572875,300 0,232.842712 0,150 C0,67.1572875 67.1572875,0 150,0 C208.883468,0 259.842389,33.9290173 284.393141,83.3034296 Z M239.661699,105.669151 L150,150.5 L239.261076,195.130538 C222.768687,227.685449 188.990265,250 150,250 C94.771525,250 50,205.228475 50,150 C50,94.771525 94.771525,50 150,50 C189.308705,50 223.320088,72.6805333 239.661699,105.669151 Z" id="Combined-Shape"></path>
            </g>
        </g>
    </g>
</svg>